<svg width="422" height="833" viewBox="0 0 422 833" fill="none" xmlns="http://www.w3.org/2000/svg">
  <path d="M782.639 326.451C782.639 326.451 548.257 43.2869 410.397 67.9578C272.536 92.6286 -5.14656 395.225 54.5723 567.262C114.291 739.3 -167.689 705.913 -167.689 705.913" stroke="#00FFFF" stroke-width="0.552088" stroke-miterlimit="10"/>
  <path d="M777.993 330.702C777.997 330.131 556.279 42.5071 417.02 64.9859C277.761 87.4648 10.3122 391.201 63.6807 560.926C117.049 730.652 -164.732 699.86 -164.732 699.86" stroke="#09FCFF" stroke-width="0.552088" stroke-miterlimit="10"/>
  <path d="M773.353 334.959C773.365 333.818 564.31 41.7337 423.643 62.0136C282.977 82.2935 25.7755 387.184 72.7881 554.596C119.801 722.008 -161.775 693.808 -161.775 693.808" stroke="#12F9FF" stroke-width="0.552088" stroke-miterlimit="10"/>
  <path d="M768.707 339.211C768.722 337.5 572.336 40.9508 430.26 59.0426C288.184 77.1344 41.2326 383.167 81.8895 548.266C122.546 713.365 -158.824 687.761 -158.824 687.761" stroke="#1BF6FF" stroke-width="0.552088" stroke-miterlimit="10"/>
  <path d="M764.066 343.468C764.083 341.191 580.367 40.1775 436.888 56.0766C293.408 71.9757 56.7014 379.15 91.0024 541.936C125.303 704.722 -155.863 681.715 -155.863 681.715" stroke="#24F3FF" stroke-width="0.552088" stroke-miterlimit="10"/>
  <path d="M759.425 347.724C759.451 344.877 588.399 39.398 443.511 53.1036C298.623 66.8091 72.159 375.131 100.11 535.604C128.055 696.077 -152.905 675.661 -152.905 675.661" stroke="#2DF0FF" stroke-width="0.552088" stroke-miterlimit="10"/>
  <path d="M754.779 351.975C754.809 348.557 596.424 38.6189 450.133 50.1317C303.842 61.6445 87.6217 371.113 109.212 529.268C130.802 687.427 -149.954 669.608 -149.954 669.608" stroke="#36EEFF" stroke-width="0.552088" stroke-miterlimit="10"/>
  <path d="M750.138 356.233C750.176 352.245 604.455 37.8464 456.756 47.1603C309.056 56.4796 103.085 367.091 118.319 522.938C133.553 678.784 -146.998 663.561 -146.998 663.561" stroke="#3FEBFF" stroke-width="0.552088" stroke-miterlimit="10"/>
  <path d="M745.497 360.49C745.539 355.931 612.486 37.0675 463.383 44.1941C314.28 51.3207 118.547 363.079 127.432 516.607C136.316 670.136 -144.036 657.514 -144.036 657.514" stroke="#48E8FF" stroke-width="0.552088" stroke-miterlimit="10"/>
  <path d="M740.851 364.742C740.896 359.612 620.512 36.2895 470 41.2226C319.488 46.1557 134.005 359.056 136.533 510.277C139.062 661.499 -141.079 651.463 -141.079 651.463" stroke="#51E5FF" stroke-width="0.552088" stroke-miterlimit="10"/>
  <path d="M736.21 368.999C736.263 363.305 628.543 35.5111 476.628 38.2514C324.713 40.9918 149.474 355.04 145.647 503.942C141.82 652.845 -138.116 645.411 -138.116 645.411" stroke="#5AE2FF" stroke-width="0.552088" stroke-miterlimit="10"/>
  <path d="M731.564 373.249C731.62 366.984 636.569 34.7312 483.245 35.2781C329.922 35.825 164.925 351.02 154.748 497.61C144.571 644.2 -135.166 639.363 -135.166 639.363" stroke="#62DFFF" stroke-width="0.552088" stroke-miterlimit="10"/>
  <path d="M726.923 377.507C726.983 370.671 644.6 33.9527 489.867 32.3116C335.134 30.6704 180.388 347.003 163.854 491.285C147.321 635.568 -132.209 633.315 -132.209 633.315" stroke="#6BDCFF" stroke-width="0.552088" stroke-miterlimit="10"/>
  <path d="M722.282 381.764C722.35 374.358 652.63 33.1799 496.495 29.3406C340.359 25.5012 195.855 342.986 172.967 484.95C150.08 626.914 -129.247 627.264 -129.247 627.264" stroke="#74D9FF" stroke-width="0.552088" stroke-miterlimit="10"/>
  <path d="M717.636 386.014C717.708 378.038 660.655 32.4004 503.112 26.3676C345.568 20.3348 211.312 338.968 182.069 478.619C152.826 618.269 -126.296 621.216 -126.296 621.216" stroke="#7DD6FF" stroke-width="0.552088" stroke-miterlimit="10"/>
  <path d="M712.995 390.272C713.075 381.725 668.686 31.6224 509.738 23.4024C350.791 15.1823 226.774 334.951 191.181 472.289C155.588 609.628 -123.334 615.164 -123.334 615.164" stroke="#86D3FF" stroke-width="0.552088" stroke-miterlimit="10"/>
  <path d="M708.354 394.529C708.437 385.416 676.716 30.8491 516.361 20.4301C356.004 10.0166 242.236 330.933 200.288 465.958C158.339 600.984 -120.377 609.117 -120.377 609.117" stroke="#8FD1FF" stroke-width="0.552088" stroke-miterlimit="10"/>
  <path d="M703.707 398.779C703.794 389.096 684.742 30.0643 522.982 17.4581C361.223 4.85181 257.698 326.915 209.395 459.622C161.091 592.335 -117.42 603.064 -117.42 603.064" stroke="#98CEFF" stroke-width="0.552088" stroke-miterlimit="10"/>
  <path d="M699.066 403.037C699.161 392.784 692.771 29.2917 529.604 14.492C366.436 -0.307655 273.155 322.898 218.501 453.298C163.847 583.698 -114.464 597.017 -114.464 597.017" stroke="#A1CBFF" stroke-width="0.552088" stroke-miterlimit="10"/>
  <path d="M694.426 407.289C694.524 396.465 700.802 28.5137 536.226 11.5151C371.651 -5.48351 288.617 318.875 227.609 446.957C166.601 575.038 -111.506 590.96 -111.506 590.96" stroke="#AAC8FF" stroke-width="0.552088" stroke-miterlimit="10"/>
  <path d="M689.779 411.544C689.881 400.149 708.826 27.7337 542.847 8.54783C376.868 -10.638 304.078 314.862 236.709 440.63C169.34 566.398 -108.556 584.916 -108.556 584.916" stroke="#B3C5FF" stroke-width="0.552088" stroke-miterlimit="10"/>
  <path d="M685.138 415.801C685.248 403.837 716.85 26.9603 549.468 5.58175C382.086 -15.7968 319.534 310.845 245.814 434.305C172.095 557.766 -105.6 578.87 -105.6 578.87" stroke="#BCC2FF" stroke-width="0.552088" stroke-miterlimit="10"/>
  <path d="M691.769 406.358C691.87 394.963 708.979 39.4431 546.406 17.1173C383.832 -5.20316 321.473 297.419 245.796 416.421C170.119 535.422 -108.225 573.813 -107.802 573.506" stroke="#B3B9FF" stroke-width="0.552088" stroke-miterlimit="10"/>
  <path d="M698.399 396.922C698.497 386.098 701.105 51.9329 543.34 28.6652C385.576 5.39741 323.405 284 245.775 398.548C168.146 513.097 -110.857 568.769 -110.006 568.156" stroke="#AAB0FF" stroke-width="0.552088" stroke-miterlimit="10"/>
  <path d="M705.029 387.484C705.124 377.231 693.23 64.4213 540.275 40.2116C387.314 16.0011 325.337 270.579 245.755 380.674C166.172 490.769 -113.489 563.729 -112.209 562.798" stroke="#A1A6FF" stroke-width="0.552088" stroke-miterlimit="10"/>
  <path d="M711.665 378.048C711.751 368.364 685.361 76.9118 537.209 51.7594C389.059 26.6015 327.274 257.165 245.734 362.801C164.194 468.436 -116.116 558.685 -114.413 557.448" stroke="#989DFF" stroke-width="0.552088" stroke-miterlimit="10"/>
  <path d="M718.296 368.609C718.379 359.496 677.484 89.4051 534.143 63.3053C390.803 37.2055 329.207 243.742 245.713 344.93C162.219 446.118 -118.749 553.645 -116.618 552.101" stroke="#8F94FF" stroke-width="0.552088" stroke-miterlimit="10"/>
  <path d="M724.927 359.164C725.008 350.617 669.609 101.888 531.079 74.8404C392.549 47.7931 331.141 230.309 245.694 327.043C160.246 423.778 -121.379 548.588 -118.825 546.731" stroke="#868BFF" stroke-width="0.552088" stroke-miterlimit="10"/>
  <path d="M731.558 349.726C731.63 341.749 661.732 114.377 528.006 86.3874C394.281 58.3973 333.072 216.893 245.667 309.168C158.262 401.443 -124.017 543.543 -121.034 541.38" stroke="#7D81FF" stroke-width="0.552088" stroke-miterlimit="10"/>
  <path d="M738.189 340.286C738.258 332.879 653.854 126.865 524.94 97.9332C396.031 69.0018 335.005 203.468 245.646 291.29C156.288 379.113 -126.643 538.498 -123.238 536.028" stroke="#7478FF" stroke-width="0.552088" stroke-miterlimit="10"/>
  <path d="M744.82 330.847C744.88 324.01 645.97 139.354 521.872 109.481C397.774 79.6073 336.937 190.045 245.625 273.414C154.313 356.783 -129.275 533.454 -125.442 530.677" stroke="#6B6FFF" stroke-width="0.552088" stroke-miterlimit="10"/>
  <path d="M751.456 321.408C751.513 315.142 638.096 151.845 518.809 121.029C399.518 90.2074 338.88 176.624 245.609 255.538C152.338 334.453 -131.902 528.41 -127.64 525.322" stroke="#6266FF" stroke-width="0.552088" stroke-miterlimit="10"/>
  <path d="M758.088 311.96C758.142 306.265 630.217 164.333 515.738 132.563C401.259 100.793 340.807 163.191 245.583 237.652C150.359 312.113 -134.539 523.363 -129.848 519.963" stroke="#5A5CFF" stroke-width="0.552088" stroke-miterlimit="10"/>
  <path d="M764.718 302.52C764.764 297.39 622.335 176.823 512.668 144.112C403.001 111.4 342.738 149.766 245.561 219.774C148.383 289.782 -137.166 518.32 -132.057 514.612" stroke="#5153FF" stroke-width="0.552088" stroke-miterlimit="10"/>
  <path d="M771.347 293.077C771.389 288.518 614.453 189.312 509.598 155.658C404.744 122.004 344.675 136.34 245.538 201.893C146.402 267.447 -139.798 513.274 -134.26 509.255" stroke="#484AFF" stroke-width="0.552088" stroke-miterlimit="10"/>
  <path d="M777.973 283.638C778.011 279.649 606.567 201.805 506.525 167.209C406.484 132.612 346.603 122.921 245.514 184.015C144.425 245.11 -142.43 508.231 -136.464 503.905" stroke="#3F41FF" stroke-width="0.552088" stroke-miterlimit="10"/>
  <path d="M784.598 274.194C784.628 270.775 598.682 214.295 503.449 178.755C408.217 143.21 348.53 109.492 245.482 166.131C142.435 222.771 -145.062 503.181 -138.673 498.547" stroke="#3637FF" stroke-width="0.552088" stroke-miterlimit="10"/>
  <path d="M791.212 264.756C791.238 261.909 590.786 226.792 500.368 190.304C409.951 153.817 350.459 96.0669 245.453 148.256C140.448 200.445 -147.694 498.136 -140.876 493.19" stroke="#2D2EFF" stroke-width="0.552088" stroke-miterlimit="10"/>
  <path d="M797.821 255.32C797.838 253.043 582.885 239.295 497.284 201.86C411.682 164.431 352.379 82.6533 245.423 130.382C138.467 178.11 -150.326 493.09 -143.08 487.839" stroke="#2425FF" stroke-width="0.552088" stroke-miterlimit="10"/>
  <path d="M804.427 245.885C804.442 244.173 574.979 251.794 494.193 213.417C413.407 175.04 354.293 69.235 245.386 112.508C136.479 155.781 -152.963 488.044 -145.294 482.486" stroke="#1B1CFF" stroke-width="0.552088" stroke-miterlimit="10"/>
  <path d="M811.03 236.453C811.042 235.312 567.075 264.296 491.105 224.977C415.135 185.658 356.211 55.8203 245.353 94.6377C134.495 133.455 -155.59 483.002 -147.499 477.136" stroke="#1212FF" stroke-width="0.552088" stroke-miterlimit="10"/>
  <path d="M817.634 227.014C817.637 226.443 559.172 276.79 488.018 236.524C416.865 196.257 358.135 42.3997 245.322 76.7554C132.508 111.111 -158.221 477.951 -149.7 471.768" stroke="#0909FF" stroke-width="0.552088" stroke-miterlimit="10"/>
  <path d="M824.241 217.581C824.241 217.581 551.273 289.291 484.935 248.083C418.592 206.874 360.058 28.9851 245.294 58.8853C130.53 88.7855 -160.847 472.907 -151.898 466.417" stroke="#0000FF" stroke-width="0.552088" stroke-miterlimit="10"/>
</svg>
